<svg width="383" height="88" viewBox="0 0 383 88" fill="none" xmlns="http://www.w3.org/2000/svg">
<g filter="url(#filter0_d_2581_19478)">
<rect x="20" y="10" width="343" height="48" rx="6" fill="#E50A54"/>
<path d="M167.306 38.154C166.545 38.154 165.901 38.007 165.374 37.713C164.851 37.419 164.429 37.0293 164.107 36.544C163.79 36.054 163.559 35.5103 163.414 34.913C163.269 34.3157 163.197 33.7113 163.197 33.1C163.197 32.5213 163.269 31.9357 163.414 31.343C163.563 30.7457 163.799 30.1973 164.121 29.698C164.448 29.194 164.872 28.7903 165.395 28.487C165.918 28.1837 166.555 28.032 167.306 28.032C167.927 28.032 168.466 28.137 168.923 28.347C169.38 28.5523 169.758 28.8207 170.057 29.152C170.36 29.4787 170.591 29.8217 170.75 30.181L169.126 30.937C168.967 30.6943 168.804 30.4867 168.636 30.314C168.468 30.1367 168.277 30.0013 168.062 29.908C167.852 29.81 167.6 29.761 167.306 29.761C166.886 29.761 166.534 29.8637 166.249 30.069C165.964 30.2697 165.736 30.5357 165.563 30.867C165.39 31.1983 165.267 31.56 165.192 31.952C165.117 32.344 165.08 32.7267 165.08 33.1C165.08 33.4967 165.122 33.891 165.206 34.283C165.29 34.675 165.423 35.032 165.605 35.354C165.787 35.676 166.018 35.935 166.298 36.131C166.578 36.3223 166.914 36.418 167.306 36.418C167.726 36.418 168.078 36.3013 168.363 36.068C168.652 35.83 168.909 35.5267 169.133 35.158L170.792 35.781C170.582 36.2337 170.318 36.6397 170.001 36.999C169.684 37.3583 169.303 37.6407 168.86 37.846C168.417 38.0513 167.899 38.154 167.306 38.154ZM175.276 38.168C174.268 38.168 173.472 37.8343 172.889 37.167C172.305 36.4997 172.014 35.5873 172.014 34.43C172.014 33.6647 172.147 33.002 172.413 32.442C172.679 31.8773 173.054 31.4433 173.54 31.14C174.03 30.832 174.608 30.678 175.276 30.678C175.938 30.678 176.512 30.8297 176.998 31.133C177.483 31.4363 177.856 31.868 178.118 32.428C178.379 32.988 178.51 33.653 178.51 34.423C178.51 35.1977 178.379 35.865 178.118 36.425C177.861 36.985 177.49 37.4167 177.005 37.72C176.519 38.0187 175.943 38.168 175.276 38.168ZM175.276 36.495C175.747 36.495 176.113 36.313 176.375 35.949C176.636 35.585 176.767 35.0763 176.767 34.423C176.767 33.7697 176.634 33.261 176.368 32.897C176.106 32.5283 175.742 32.344 175.276 32.344C174.804 32.344 174.436 32.5283 174.17 32.897C173.904 33.2657 173.771 33.7767 173.771 34.43C173.771 35.074 173.904 35.5803 174.17 35.949C174.436 36.313 174.804 36.495 175.276 36.495ZM180.185 38V30.846H181.935V31.532C182.163 31.2473 182.436 31.035 182.754 30.895C183.076 30.7503 183.442 30.678 183.853 30.678C184.651 30.678 185.267 30.9253 185.701 31.42C186.135 31.91 186.352 32.617 186.352 33.541V38H184.609V34.08C184.609 33.478 184.504 33.0393 184.294 32.764C184.088 32.484 183.766 32.344 183.328 32.344C182.852 32.344 182.499 32.484 182.271 32.764C182.047 33.0393 181.935 33.4687 181.935 34.052V38H180.185ZM190.351 38.168C189.782 38.168 189.355 38.0117 189.07 37.699C188.785 37.3863 188.643 36.9197 188.643 36.299V32.379H187.6V30.846H188.643V28.725L190.379 27.892V30.846H192.003V32.379H190.379V35.984C190.379 36.208 190.423 36.3737 190.512 36.481C190.605 36.5883 190.75 36.642 190.946 36.642C191.291 36.642 191.669 36.5347 192.08 36.32L191.877 37.846C191.662 37.9533 191.429 38.0327 191.177 38.084C190.925 38.14 190.65 38.168 190.351 38.168ZM193.502 38V30.846H195.252V38H193.502ZM194.377 29.95C194.097 29.95 193.854 29.8497 193.649 29.649C193.448 29.4437 193.348 29.201 193.348 28.921C193.348 28.641 193.448 28.403 193.649 28.207C193.849 28.0063 194.092 27.906 194.377 27.906C194.671 27.906 194.916 28.004 195.112 28.2C195.308 28.396 195.406 28.6363 195.406 28.921C195.406 29.2057 195.305 29.4483 195.105 29.649C194.909 29.8497 194.666 29.95 194.377 29.95ZM197.452 38V30.846H199.202V31.532C199.431 31.2473 199.704 31.035 200.021 30.895C200.343 30.7503 200.71 30.678 201.12 30.678C201.918 30.678 202.534 30.9253 202.968 31.42C203.402 31.91 203.619 32.617 203.619 33.541V38H201.876V34.08C201.876 33.478 201.771 33.0393 201.561 32.764C201.356 32.484 201.034 32.344 200.595 32.344C200.119 32.344 199.767 32.484 199.538 32.764C199.314 33.0393 199.202 33.4687 199.202 34.052V38H197.452ZM208.181 38.168C207.383 38.168 206.764 37.9207 206.326 37.426C205.887 36.9267 205.668 36.222 205.668 35.312V30.846H207.418V34.766C207.418 35.368 207.52 35.8067 207.726 36.082C207.931 36.3573 208.255 36.495 208.699 36.495C209.175 36.495 209.525 36.3573 209.749 36.082C209.977 35.802 210.092 35.3727 210.092 34.794V30.846H211.835V38H210.092V37.328C209.872 37.608 209.602 37.818 209.28 37.958C208.962 38.098 208.596 38.168 208.181 38.168ZM216.833 38.168C216.147 38.168 215.554 38.014 215.055 37.706C214.56 37.398 214.178 36.964 213.907 36.404C213.641 35.8393 213.508 35.1767 213.508 34.416C213.508 33.646 213.643 32.981 213.914 32.421C214.189 31.861 214.574 31.4317 215.069 31.133C215.568 30.8297 216.156 30.678 216.833 30.678C217.412 30.678 217.937 30.7993 218.408 31.042C218.879 31.2847 219.255 31.658 219.535 32.162C219.815 32.6613 219.955 33.2983 219.955 34.073C219.955 34.1943 219.95 34.3437 219.941 34.521C219.936 34.6937 219.925 34.8687 219.906 35.046H215.237C215.256 35.3727 215.33 35.6597 215.461 35.907C215.596 36.1497 215.781 36.3387 216.014 36.474C216.247 36.6093 216.523 36.677 216.84 36.677C217.181 36.677 217.477 36.621 217.729 36.509C217.981 36.3923 218.219 36.208 218.443 35.956L219.451 36.999C219.143 37.349 218.772 37.6313 218.338 37.846C217.904 38.0607 217.402 38.168 216.833 38.168ZM215.244 33.681H218.261C218.238 33.3683 218.168 33.1 218.051 32.876C217.934 32.6473 217.771 32.4723 217.561 32.351C217.351 32.2297 217.097 32.169 216.798 32.169C216.387 32.169 216.037 32.295 215.748 32.547C215.459 32.799 215.291 33.177 215.244 33.681Z" fill="white"/>
</g>
<defs>
<filter id="filter0_d_2581_19478" x="0" y="0" width="383" height="88" filterUnits="userSpaceOnUse" color-interpolation-filters="sRGB">
<feFlood flood-opacity="0" result="BackgroundImageFix"/>
<feColorMatrix in="SourceAlpha" type="matrix" values="0 0 0 0 0 0 0 0 0 0 0 0 0 0 0 0 0 0 127 0" result="hardAlpha"/>
<feOffset dy="10"/>
<feGaussianBlur stdDeviation="10"/>
<feColorMatrix type="matrix" values="0 0 0 0 0.156863 0 0 0 0 0.14902 0 0 0 0 0.219608 0 0 0 0.15 0"/>
<feBlend mode="normal" in2="BackgroundImageFix" result="effect1_dropShadow_2581_19478"/>
<feBlend mode="normal" in="SourceGraphic" in2="effect1_dropShadow_2581_19478" result="shape"/>
</filter>
</defs>
</svg>
