<svg width="285" height="60" viewBox="0 0 285 60" fill="none" xmlns="http://www.w3.org/2000/svg">
<path d="M89.6401 59.3961V42.0888C87.3455 45.6288 82.2975 46.6778 78.8884 46.6778C68.5303 46.6778 62.5645 39.204 62.5645 29.7639C62.5645 20.2577 69.1857 12.8496 79.1508 12.8496C82.822 12.8496 87.1488 14.423 89.6401 18.0288L90.1645 13.5704H97.6382V59.3972L89.6401 59.3961ZM88.9189 29.7637C88.9189 24.7154 85.5098 20.5853 79.7407 20.5853C73.9716 20.5853 70.5625 24.7154 70.5625 29.7637C70.5625 34.812 74.2994 38.9417 79.7407 38.9417C85.182 38.9417 88.9189 34.8116 88.9189 29.7637Z" fill="#5D8389"/>
<path d="M127.665 13.5703H135.335V45.8914H127.796L127.403 41.1709C125.567 44.9732 120.519 46.8087 116.914 46.8746C107.342 46.94 100.262 41.0396 100.262 29.6979C100.262 18.5531 107.67 12.7184 117.11 12.784C121.437 12.784 125.567 14.8164 127.403 18.0288L127.665 13.5703ZM108.26 29.6977C108.26 35.8604 112.52 39.5317 117.831 39.5317C130.419 39.5317 130.419 19.9295 117.831 19.9295C112.521 19.9295 108.26 23.5353 108.26 29.6977Z" fill="#5D8389"/>
<path d="M146.152 0V17.9631C149.036 14.2261 152.576 13.1114 156.248 13.1114C165.426 13.1114 169.49 19.3396 169.49 28.8454V45.8914H161.492V28.9102C161.492 23.0102 158.411 20.5187 154.149 20.5187C149.429 20.5187 146.152 24.5179 146.152 29.3689V45.8914H138.154V0H146.152Z" fill="#5D8389"/>
<path d="M228.508 13.505L235.588 37.8274L242.997 13.505H251.847L240.571 46.022H231.261L227.918 36.4502L225.034 25.6336L222.149 36.4502L218.806 46.022H209.497L198.155 13.505H207.071L214.479 37.8274L221.494 13.505H228.508Z" fill="#5D8389"/>
<path d="M276.5 13.5703H284.171V45.8914H276.631L276.238 41.1709C274.402 44.9732 269.355 46.8087 265.749 46.8746C256.177 46.94 249.097 41.0396 249.097 29.6979C249.097 18.5531 256.505 12.7184 265.945 12.784C270.272 12.784 274.402 14.8164 276.238 18.0288L276.5 13.5703ZM257.095 29.6977C257.095 35.8604 261.356 39.5317 266.667 39.5317C279.254 39.5317 279.254 19.9295 266.667 19.9295C261.356 19.9295 257.095 23.5353 257.095 29.6977Z" fill="#5D8389"/>
<path d="M53.5508 34.6229C54.2318 30.9116 54.1273 27.0987 53.2441 23.4303C52.3609 19.7618 50.7186 16.3193 48.4231 13.3245C46.1276 10.3298 43.2299 7.84953 39.9168 6.04359C36.6038 4.23765 32.949 3.14617 29.1883 2.83956C27.3553 2.68013 25.5103 2.72397 23.687 2.97024C21.5273 3.25195 19.4064 3.77758 17.365 4.53707C14.2357 5.70892 11.3625 7.4747 8.9034 9.73722C3.05988 15.1265 0.128021 21.8087 0 28.9741C0.0283359 32.8169 0.50963 35.8073 1.53992 38.7171C2.85443 42.409 4.95265 45.7725 7.6904 48.5766C10.4281 51.3806 13.7405 53.5587 17.3999 54.9612C19.6275 55.8238 21.963 56.3766 24.341 56.604C28.9085 57.0107 33.3461 56.4302 37.5749 54.5667C37.6218 54.5379 37.6742 54.5189 37.7288 54.5111C37.7833 54.5032 37.8389 54.5066 37.8921 54.521C37.9453 54.5355 37.995 54.5607 38.0381 54.595C38.0812 54.6294 38.1169 54.6722 38.1428 54.7208C38.839 55.6007 39.5932 56.4332 40.302 57.3043C42.5907 60.1134 46.3478 60.8426 49.4635 58.9431C52.3601 57.1771 53.5363 53.1181 51.9779 50.1061C51.2348 48.6704 50.0647 47.5643 49.0678 46.3265C48.7559 45.9391 48.7661 45.7024 49.0385 45.3218C51.3227 42.1373 52.8645 38.4815 53.5506 34.6229H53.5508ZM26.9982 49.7545C23.0406 49.7545 19.1719 48.5809 15.8812 46.3822C12.5906 44.1834 10.0259 41.0583 8.51134 37.402C6.99683 33.7456 6.60058 29.7222 7.37267 25.8407C8.14476 21.9591 10.0505 18.3936 12.849 15.5952C15.6474 12.7967 19.2129 10.891 23.0945 10.1189C26.976 9.34677 30.9994 9.74304 34.6557 11.2575C38.3121 12.7721 41.4373 15.3368 43.636 18.6274C45.8347 21.9181 47.0083 25.7868 47.0083 29.7444C47.0083 35.0514 44.9001 40.1411 41.1475 43.8937C37.3949 47.6463 32.3052 49.7545 26.9982 49.7545Z" fill="#E50A54"/>
<path d="M14.1634 31.227C15.2405 33.5917 17.19 35.4346 19.1519 37.1402C21.6013 39.2697 24.1427 41.2871 26.7761 43.1925C26.8357 43.2587 26.9085 43.3116 26.9898 43.3478C27.0711 43.384 27.1592 43.4026 27.2482 43.4025C27.3373 43.4024 27.4253 43.3835 27.5065 43.3471C27.5878 43.3107 27.6604 43.2576 27.7198 43.1913L30.4327 41.2022C32.2221 39.8902 34.014 38.5764 35.6832 37.1147C37.515 35.5108 39.2199 33.6961 40.2883 31.5087C41.3567 29.3213 41.7312 26.7095 40.8783 24.4292C40.4144 23.1891 39.616 22.1019 38.5716 21.2882C37.5272 20.4744 36.2778 19.9661 34.9619 19.8195C33.6461 19.673 32.3154 19.894 31.1176 20.458C29.9198 21.0221 28.9017 21.907 28.1764 23.0147C29.6006 22.2849 31.3117 22.0626 32.8308 22.5662C34.35 23.0697 35.6308 24.3407 35.9933 25.8996C36.2872 27.1635 35.9784 28.5124 35.3664 29.6569C34.7544 30.8013 33.8579 31.7668 32.9211 32.665C31.3993 34.1019 29.7814 35.4336 28.0788 36.651C27.908 36.7984 27.7017 36.8987 27.4803 36.9419C27.1881 36.9724 26.9156 36.8059 26.6691 36.6461C24.8195 35.4466 22.9536 34.2338 21.4074 32.6623C20.0952 31.3285 18.8665 29.5696 18.5112 27.6962C18.4535 27.397 18.4315 27.092 18.4456 26.7876C18.4608 26.4028 18.5508 26.0246 18.7106 25.6741C19.2922 24.4361 20.7966 23.4201 22.149 23.34C23.5177 23.2585 24.9011 23.8456 25.9729 24.6426C27.4719 25.7573 28.5499 27.3335 29.5991 28.8788C29.3443 25.8273 27.8195 22.8243 25.2729 21.1237C22.7263 19.4231 19.1556 19.2183 16.6127 20.9245C15.0166 22.0307 13.9039 23.7053 13.5025 25.6052C13.1162 27.5019 13.3479 29.4725 14.1636 31.2278L14.1634 31.227ZM20.7789 36.7979C20.7727 36.7975 20.7668 36.7952 20.7619 36.7914C20.757 36.7875 20.7534 36.7823 20.7516 36.7763C20.7621 36.7816 20.7714 36.7889 20.7789 36.7979Z" fill="#5D8389"/>
<path d="M195.913 13.6069V30.0913C195.913 35.0079 192.57 39.1384 187.653 39.1384C182.54 39.1384 179.852 35.4015 179.852 30.4845V13.5702H171.854V30.55C171.854 40.5797 177.491 46.4152 185.226 46.4152C189.75 46.4152 192.831 44.8417 196.175 41.5635L196.699 45.9557H203.845V36.3509L195.913 13.6069Z" fill="#5D8389"/>
</svg>
