<svg width="265" height="281" viewBox="0 0 265 281" fill="none" xmlns="http://www.w3.org/2000/svg">
<path d="M262.824 156.451C266.166 138.236 265.653 119.523 261.318 101.518C256.984 83.5139 248.923 66.6179 237.657 51.9201C226.391 37.2223 212.169 25.0491 195.909 16.1857C179.649 7.32225 161.712 1.96533 143.254 0.460524C134.258 -0.321924 125.203 -0.106788 116.254 1.1019C105.654 2.48451 95.2452 5.06425 85.2264 8.79179C69.8679 14.5432 55.7661 23.2095 43.6973 34.3138C15.0177 60.7642 0.62832 93.5599 0 128.727C0.139071 147.587 2.50123 162.264 7.5578 176.545C14.0093 194.665 24.3073 211.173 37.7439 224.935C51.1806 238.697 67.4375 249.387 85.3975 256.27C96.3304 260.504 107.793 263.217 119.464 264.333C141.881 266.329 163.66 263.479 184.415 254.334C184.645 254.192 184.903 254.099 185.17 254.061C185.438 254.022 185.711 254.039 185.972 254.11C186.233 254.181 186.477 254.304 186.689 254.473C186.9 254.641 187.075 254.851 187.202 255.09C190.619 259.408 194.321 263.494 197.8 267.77C209.032 281.557 227.472 285.135 242.764 275.813C256.98 267.145 262.753 247.224 255.104 232.442C251.457 225.395 245.714 219.966 240.822 213.891C239.291 211.99 239.341 210.829 240.678 208.961C251.889 193.331 259.455 175.389 262.823 156.451H262.824ZM132.505 230.716C113.082 230.716 94.0942 224.956 77.944 214.165C61.7938 203.373 49.2062 188.036 41.7731 170.09C34.34 152.145 32.3952 132.399 36.1846 113.348C39.9739 94.2979 49.3273 76.7989 63.0619 63.0642C76.7965 49.3296 94.2955 39.9762 113.346 36.1868C132.397 32.3975 152.143 34.3423 170.088 41.7754C188.033 49.2086 203.371 61.7961 214.162 77.9463C224.954 94.0965 230.714 113.084 230.714 132.508C230.714 158.554 220.367 183.534 201.949 201.951C183.531 220.369 158.552 230.716 132.505 230.716Z" fill="#E50A54"/>
<path d="M69.5113 139.784C74.798 151.39 84.3659 160.435 93.9948 168.806C106.016 179.258 118.489 189.159 131.414 198.51C131.706 198.835 132.063 199.095 132.463 199.273C132.862 199.45 133.294 199.542 133.731 199.541C134.168 199.541 134.6 199.448 134.998 199.269C135.397 199.091 135.754 198.83 136.045 198.504L149.36 188.742C158.143 182.303 166.937 175.855 175.129 168.681C184.12 160.809 192.487 151.903 197.731 141.167C202.974 130.432 204.812 117.613 200.626 106.422C198.35 100.335 194.431 94.9992 189.305 91.0055C184.18 87.0118 178.047 84.5168 171.589 83.7976C165.131 83.0784 158.6 84.1631 152.721 86.9313C146.843 89.6994 141.846 94.0428 138.286 99.479C145.276 95.8972 153.674 94.8066 161.13 97.2778C168.586 99.7491 174.872 105.987 176.651 113.638C178.094 119.841 176.578 126.462 173.574 132.079C170.571 137.695 166.17 142.434 161.573 146.842C154.104 153.894 146.164 160.43 137.807 166.405C136.969 167.129 135.956 167.621 134.87 167.833C133.436 167.983 132.098 167.165 130.889 166.381C121.811 160.494 112.653 154.542 105.064 146.829C98.6241 140.283 92.594 131.65 90.8501 122.456C90.5669 120.987 90.4588 119.49 90.5281 117.996C90.6026 116.108 91.0443 114.251 91.8287 112.532C94.6831 106.455 102.067 101.469 108.704 101.076C115.422 100.676 122.211 103.557 127.472 107.469C134.829 112.94 140.119 120.676 145.269 128.26C144.018 113.283 136.534 98.5446 124.036 90.1983C111.538 81.8521 94.0128 80.8465 81.5324 89.2208C73.699 94.6498 68.2379 102.868 66.2677 112.193C64.3716 121.502 65.5088 131.173 69.5124 139.788L69.5113 139.784ZM101.98 167.126C101.949 167.124 101.92 167.113 101.896 167.094C101.872 167.075 101.855 167.05 101.846 167.02C101.897 167.046 101.943 167.082 101.98 167.126Z" fill="#5D8389"/>
</svg>
