<svg width="50" height="50" viewBox="0 0 50 50" fill="none" xmlns="http://www.w3.org/2000/svg">
<g clip-path="url(#clip0_2581_19617)">
<path d="M26 1C21.5938 1 18 4.59375 18 9C18 10.8555 18.9375 12.6641 20.2188 14.4375C21.5 16.2109 23.1562 17.9375 24.8125 19.4688C28.125 22.5273 31.4375 24.8125 31.4375 24.8125L32 25.2188L32.5625 24.8125C32.5625 24.8125 35.8789 22.5312 39.1875 19.4688C40.8438 17.9375 42.5 16.207 43.7812 14.4375C45.0625 12.668 46 10.8477 46 9C46 4.59375 42.4062 1 38 1C35.5781 1 33.4648 2.13672 32 3.84375C30.5352 2.13672 28.4219 1 26 1ZM26 3C28.1914 3 30.1055 4.1875 31.1562 5.9375L32 7.34375L32.8438 5.9375C33.8945 4.1875 35.8086 3 38 3C41.3242 3 44 5.67578 44 9C44 10.1172 43.3125 11.6484 42.1562 13.25C41 14.8516 39.4062 16.5234 37.8125 18C34.9062 20.6914 32.4961 22.3672 32 22.7188C31.5039 22.3672 29.0938 20.6836 26.1875 18C24.5938 16.5273 23 14.8828 21.8438 13.2812C20.6875 11.6797 20 10.1328 20 9C20 5.67578 22.6758 3 26 3ZM46 26.0312C45.0312 26.0898 44.0625 26.5312 43.3438 27.25L33.5625 37H24.4375L24.0312 36.5938L29.875 35.4375C31.3672 35.1406 32.6484 34.0078 32.9375 32.4375C33.3633 30.1055 31.5391 28 29.25 28H15.3125C12.9258 28 10.625 28.9375 8.9375 30.625L0.28125 39.2812L-0.40625 40L0.28125 40.7188L9.28125 49.7188L10 50.4062L10.7188 49.7188L14.125 46.2812C14.3125 46.0938 14.5469 46 14.8125 46H33.3438C34.668 46 35.9375 45.4688 36.875 44.5312L48.875 32.5312C50.4102 30.9961 50.3477 28.4336 48.7188 26.9688C47.9375 26.2656 46.9688 25.9727 46 26.0312ZM46.0938 28.0312C46.5703 27.9961 47.0508 28.1484 47.4062 28.4688C48.207 29.1875 48.2148 30.3789 47.4688 31.125L35.4688 43.125C34.9062 43.6875 34.1406 44 33.3438 44H14.8125C14.0156 44 13.2812 44.3125 12.7188 44.875L10 47.5625L2.4375 40L10.375 32.0625C11.6875 30.75 13.457 30 15.3125 30H29.25C30.3359 30 31.1797 30.9336 30.9688 32.0938C30.8438 32.7734 30.2188 33.3203 29.4688 33.4688L21.8125 35.0312L19.9688 35.375L21.2812 36.7188L23.2812 38.7188L23.5938 39H34.4062L34.7188 38.7188L44.75 28.6562C45.1133 28.293 45.6172 28.0664 46.0938 28.0312Z" fill="#E50A54"/>
</g>
<defs>
<clipPath id="clip0_2581_19617">
<rect width="50" height="50" fill="white"/>
</clipPath>
</defs>
</svg>
