<svg width="28" height="28" viewBox="0 0 28 28" fill="none" xmlns="http://www.w3.org/2000/svg">
<path d="M1.16699 5.83337H26.8337V22.1667H1.16699V5.83337Z" fill="#3F51B5"/>
<path d="M1.16699 8.29271L13.3062 15.7121L15.1314 12.7255L3.85499 5.83337H1.16699V8.29271Z" fill="white"/>
<path d="M26.8332 5.83337H24.728L13.4521 12.7249L15.2768 15.7121L26.8332 8.64854V5.83337Z" fill="white"/>
<path d="M15.2768 11.8247L13.4521 14.8114L25.4863 22.1666H26.8332V18.8877L15.2768 11.8247Z" fill="white"/>
<path d="M1.16699 19.2447V22.1666H3.09783L15.1314 14.812L13.3067 11.8247L1.16699 19.2447Z" fill="white"/>
<path d="M1.16699 11.6666H26.8337V16.3333H1.16699V11.6666Z" fill="white"/>
<path d="M11.667 5.83337H16.3337V22.1667H11.667V5.83337Z" fill="white"/>
<path d="M10.0442 11.6667L1.16699 6.24112V7.60846L7.80649 11.6667H10.0442ZM25.8472 5.83337L16.3027 11.6667H18.5398L26.8337 6.59812V5.83337H25.8472ZM19.2982 16.3334L26.8337 20.9388V19.5715L21.5352 16.3334H19.2982ZM9.28582 16.3334L1.16699 21.2952V22.1667H1.97899L11.5229 16.3334H9.28582ZM1.16699 12.8334H26.8337V15.1667H1.16699V12.8334Z" fill="#E50A54"/>
<path d="M12.834 5.83337H15.1673V22.1667H12.834V5.83337Z" fill="#E50A54"/>
</svg>
